<?xml version="1.0" encoding="UTF-8" standalone="no"?><!DOCTYPE svg PUBLIC "-//W3C//DTD SVG 1.1//EN" "http://www.w3.org/Graphics/SVG/1.1/DTD/svg11.dtd"><svg width="100%" height="100%" viewBox="0 0 409 409" version="1.1" xmlns="http://www.w3.org/2000/svg" xmlns:xlink="http://www.w3.org/1999/xlink" xml:space="preserve" style="fill-rule:evenodd;clip-rule:evenodd;stroke-linejoin:round;stroke-miterlimit:1.41421;"><path d="M353.701,0l-298.614,0c-30.422,0 -55.085,24.662 -55.085,55.085l0,298.616c0,30.423 24.662,55.085 55.085,55.085l147.275,0l0.251,-146.078l-37.951,0c-4.932,0 -8.935,-3.988 -8.954,-8.92l-0.182,-47.087c-0.019,-4.959 3.996,-8.989 8.955,-8.989l37.882,0l0,-45.498c0,-52.8 32.247,-81.55 79.348,-81.55l38.65,0c4.945,0 8.955,4.009 8.955,8.955l0,39.704c0,4.944 -4.007,8.952 -8.95,8.955l-23.719,0.011c-25.615,0 -30.575,12.172 -30.575,30.035l0,39.389l56.285,0c5.363,0 9.524,4.683 8.892,10.009l-5.581,47.087c-0.534,4.506 -4.355,7.901 -8.892,7.901l-50.453,0l-0.251,146.078l87.631,0c30.422,0 55.084,-24.662 55.084,-55.084l0,-298.619c-0.001,-30.423 -24.663,-55.085 -55.086,-55.085Z" style="fill:#fff;fill-rule:nonzero;"/></svg>