<?xml version="1.0" encoding="UTF-8" standalone="no"?><!DOCTYPE svg PUBLIC "-//W3C//DTD SVG 1.1//EN" "http://www.w3.org/Graphics/SVG/1.1/DTD/svg11.dtd"><svg width="100%" height="100%" viewBox="0 0 40 36" version="1.1" xmlns="http://www.w3.org/2000/svg" xmlns:xlink="http://www.w3.org/1999/xlink" xml:space="preserve" style="fill-rule:evenodd;clip-rule:evenodd;stroke-linejoin:round;stroke-miterlimit:1.41421;"><g><g><path d="M6.814,11.522c0.854,0 1.53,-0.313 2.028,-0.941c0.498,-0.627 0.747,-1.485 0.747,-2.571l0,-7.491l3.028,0l0,7.588c0,1.966 -0.544,3.477 -1.63,4.531c-1.087,1.055 -2.478,1.582 -4.173,1.582c-1.695,0 -3.089,-0.531 -4.182,-1.592c-1.093,-1.06 -1.64,-2.568 -1.64,-4.521l0,-7.588l3.027,0l0,7.491c0,1.086 0.253,1.944 0.757,2.571c0.505,0.628 1.184,0.941 2.038,0.941Z" style="fill:#1fcec4;fill-rule:nonzero;"/><path d="M21.602,14.084l-3.027,0l0,-5.356l-4.697,-8.209l3.28,0l2.93,5.045l2.931,-5.045l3.28,0l-4.697,8.209l0,5.356Z" style="fill:#1fcec4;fill-rule:nonzero;"/><path d="M33.984,11.406c1.488,0 2.704,-0.589 3.648,-1.766l1.941,1.999c-1.54,1.733 -3.354,2.6 -5.444,2.6c-2.089,0 -3.81,-0.66 -5.162,-1.979c-1.352,-1.32 -2.028,-2.986 -2.028,-4.998c0,-2.011 0.689,-3.69 2.067,-5.036c1.378,-1.345 3.063,-2.018 5.055,-2.018c2.226,0 4.089,0.847 5.59,2.542l-1.883,2.135c-0.957,-1.19 -2.148,-1.785 -3.571,-1.785c-1.138,0 -2.112,0.372 -2.92,1.116c-0.809,0.743 -1.213,1.746 -1.213,3.008c0,1.261 0.381,2.273 1.145,3.037c0.763,0.763 1.688,1.145 2.775,1.145Z" style="fill:#1fcec4;fill-rule:nonzero;"/></g><path d="M34.176,21.39c0,7.882 -6.39,14.271 -14.271,14.271c-7.882,0 -14.272,-6.389 -14.272,-14.271l28.543,0Z" style="fill:#facd0d;"/></g></svg>