<?xml version="1.0" encoding="UTF-8" standalone="no"?><!DOCTYPE svg PUBLIC "-//W3C//DTD SVG 1.1//EN" "http://www.w3.org/Graphics/SVG/1.1/DTD/svg11.dtd"><svg width="100%" height="100%" viewBox="0 0 166 79" version="1.1" xmlns="http://www.w3.org/2000/svg" xmlns:xlink="http://www.w3.org/1999/xlink" xml:space="preserve" style="fill-rule:evenodd;clip-rule:evenodd;stroke-linejoin:round;stroke-miterlimit:1.41421;"><g><g><path d="M53.522,42.752c0,2.447 -1.984,4.431 -4.431,4.431c-2.447,0 -4.431,-1.984 -4.431,-4.431l8.862,0Z" style="fill:#facd0d;"/><circle cx="45.108" cy="38.63" r="1.922" style="fill:#facd0d;"/><circle cx="52.957" cy="38.63" r="1.922" style="fill:#facd0d;"/></g><g><path d="M10.124,15.5c1.312,0 2.352,-0.448 3.12,-1.344c0.768,-0.896 1.152,-2.112 1.152,-3.648l0,-9.288l2.832,0l0,9.408c0,2.416 -0.664,4.276 -1.992,5.58c-1.328,1.304 -3.032,1.956 -5.112,1.956c-2.08,0 -3.784,-0.652 -5.112,-1.956c-1.328,-1.304 -1.992,-3.164 -1.992,-5.58l0,-9.408l2.832,0l0,9.288c0,1.536 0.384,2.752 1.152,3.648c0.768,0.896 1.808,1.344 3.12,1.344Z" style="fill:#fff;fill-rule:nonzero;"/><path d="M35.577,1.22l2.832,0l0,16.776l-3.072,0l-9.504,-12.24l0,12.24l-2.832,0l0,-16.776l2.832,0l9.744,12.528l0,-12.528Z" style="fill:#fff;fill-rule:nonzero;"/><rect x="44.399" y="1.22" width="2.832" height="16.776" style="fill:#fff;fill-rule:nonzero;"/><path d="M60.972,3.404c-1.664,0 -3.068,0.592 -4.212,1.776c-1.144,1.184 -1.716,2.62 -1.716,4.308c0,1.688 0.572,3.124 1.716,4.308c1.144,1.184 2.548,1.776 4.212,1.776c1.664,0 3.068,-0.592 4.212,-1.776c1.144,-1.184 1.716,-2.62 1.716,-4.308c0,-1.688 -0.572,-3.124 -1.716,-4.308c-1.144,-1.184 -2.548,-1.776 -4.212,-1.776ZM60.972,18.164c-2.496,0 -4.592,-0.828 -6.288,-2.484c-1.696,-1.656 -2.544,-3.72 -2.544,-6.192c0,-2.472 0.848,-4.536 2.544,-6.192c1.696,-1.656 3.792,-2.484 6.288,-2.484c2.496,0 4.592,0.828 6.288,2.484c1.696,1.656 2.544,3.72 2.544,6.192c0,2.472 -0.848,4.536 -2.544,6.192c-1.696,1.656 -3.792,2.484 -6.288,2.484Z" style="fill:#fff;fill-rule:nonzero;"/><path d="M87.289,1.22l2.832,0l0,16.776l-3.072,0l-9.504,-12.24l0,12.24l-2.832,0l0,-16.776l2.832,0l9.744,12.528l0,-12.528Z" style="fill:#fff;fill-rule:nonzero;"/><path d="M103.767,17.996l-3.168,0l-6.744,-16.776l3.168,0l5.16,12.528l5.16,-12.528l3.168,0l-6.744,16.776Z" style="fill:#fff;fill-rule:nonzero;"/><rect x="114.244" y="1.22" width="2.832" height="16.776" style="fill:#fff;fill-rule:nonzero;"/><path d="M123.065,17.996l0,-16.776l2.832,0l0,14.088l7.656,0l0,2.688l-10.488,0Z" style="fill:#fff;fill-rule:nonzero;"/><path d="M137.983,17.996l0,-16.776l2.832,0l0,14.088l7.656,0l0,2.688l-10.488,0Z" style="fill:#fff;fill-rule:nonzero;"/><path d="M164.684,1.22l0,2.664l-8.952,0l0,4.44l8.04,0l0,2.52l-8.04,0l0,4.488l9.24,0l0,2.664l-12.072,0l0,-16.776l11.784,0Z" style="fill:#fff;fill-rule:nonzero;"/><path d="M17.36,46.004l9.072,-17.244l-7.452,0l-5.364,10.296l-5.508,-10.296l-7.488,0l9.252,17.388l0,7.848l7.488,0l0,-7.992Z" style="fill:#fff;fill-rule:nonzero;"/><path d="M48.764,28.544c-7.92,0 -13.752,5.4 -13.752,12.816c0,7.452 5.832,12.96 13.752,12.96c7.92,0 13.752,-5.544 13.752,-12.96c0,-7.38 -5.832,-12.816 -13.752,-12.816ZM49.072,32.927c4.691,0 8.5,3.809 8.5,8.5c0,4.691 -3.809,8.5 -8.5,8.5c-4.691,0 -8.5,-3.809 -8.5,-8.5c0,-4.691 3.809,-8.5 8.5,-8.5Z" style="fill:#fff;"/><path d="M97.016,28.76l-7.488,0l0,14.58c0,2.952 -1.764,4.716 -4.248,4.716c-2.52,0 -4.5,-1.8 -4.5,-4.716l0,-14.58l-7.488,0l0,14.58c0,6.696 4.716,10.98 11.952,10.98c7.2,0 11.772,-4.284 11.772,-10.98l0,-14.58Z" style="fill:#fff;fill-rule:nonzero;"/><path d="M129.5,34.736l0,-5.976l-22.176,0l0,5.976l7.308,0l0,19.26l7.524,0l0,-19.26l7.344,0Z" style="fill:#fff;fill-rule:nonzero;"/><path d="M164.144,53.996l0,-25.236l-7.488,0l0,10.044l-8.964,0l0,-10.044l-7.488,0l0,25.236l7.488,0l0,-9.396l8.964,0l0,9.396l7.488,0Z" style="fill:#fff;fill-rule:nonzero;"/><path d="M10.892,75.428c0.976,0 1.816,-0.164 2.52,-0.492c0.704,-0.328 1.44,-0.852 2.208,-1.572l1.824,1.872c-1.776,1.968 -3.932,2.952 -6.468,2.952c-2.536,0 -4.64,-0.816 -6.312,-2.448c-1.672,-1.632 -2.508,-3.696 -2.508,-6.192c0,-2.496 0.852,-4.576 2.556,-6.24c1.704,-1.664 3.856,-2.496 6.456,-2.496c2.6,0 4.772,0.96 6.516,2.88l-1.8,1.968c-0.8,-0.768 -1.556,-1.304 -2.268,-1.608c-0.712,-0.304 -1.548,-0.456 -2.508,-0.456c-1.696,0 -3.12,0.548 -4.272,1.644c-1.152,1.096 -1.728,2.496 -1.728,4.2c0,1.704 0.572,3.128 1.716,4.272c1.144,1.144 2.5,1.716 4.068,1.716Z" style="fill:#fff;fill-rule:nonzero;"/><path d="M36.736,63.404c-1.664,0 -3.068,0.592 -4.212,1.776c-1.144,1.184 -1.716,2.62 -1.716,4.308c0,1.688 0.572,3.124 1.716,4.308c1.144,1.184 2.548,1.776 4.212,1.776c1.664,0 3.068,-0.592 4.212,-1.776c1.144,-1.184 1.716,-2.62 1.716,-4.308c0,-1.688 -0.572,-3.124 -1.716,-4.308c-1.144,-1.184 -2.548,-1.776 -4.212,-1.776ZM36.736,78.164c-2.496,0 -4.592,-0.828 -6.288,-2.484c-1.696,-1.656 -2.544,-3.72 -2.544,-6.192c0,-2.472 0.848,-4.536 2.544,-6.192c1.696,-1.656 3.792,-2.484 6.288,-2.484c2.496,0 4.592,0.828 6.288,2.484c1.696,1.656 2.544,3.72 2.544,6.192c0,2.472 -0.848,4.536 -2.544,6.192c-1.696,1.656 -3.792,2.484 -6.288,2.484Z" style="fill:#fff;fill-rule:nonzero;"/><path d="M64.476,75.5c1.312,0 2.352,-0.448 3.12,-1.344c0.768,-0.896 1.152,-2.112 1.152,-3.648l0,-9.288l2.832,0l0,9.408c0,2.416 -0.664,4.276 -1.992,5.58c-1.328,1.304 -3.032,1.956 -5.112,1.956c-2.08,0 -3.784,-0.652 -5.112,-1.956c-1.328,-1.304 -1.992,-3.164 -1.992,-5.58l0,-9.408l2.832,0l0,9.288c0,1.536 0.384,2.752 1.152,3.648c0.768,0.896 1.808,1.344 3.12,1.344Z" style="fill:#fff;fill-rule:nonzero;"/><path d="M97.04,61.22l2.832,0l0,16.776l-3.072,0l-9.504,-12.24l0,12.24l-2.832,0l0,-16.776l2.832,0l9.744,12.528l0,-12.528Z" style="fill:#fff;fill-rule:nonzero;"/><path d="M120.628,75.428c0.976,0 1.816,-0.164 2.52,-0.492c0.704,-0.328 1.44,-0.852 2.208,-1.572l1.824,1.872c-1.776,1.968 -3.932,2.952 -6.468,2.952c-2.536,0 -4.64,-0.816 -6.312,-2.448c-1.672,-1.632 -2.508,-3.696 -2.508,-6.192c0,-2.496 0.852,-4.576 2.556,-6.24c1.704,-1.664 3.856,-2.496 6.456,-2.496c2.6,0 4.772,0.96 6.516,2.88l-1.8,1.968c-0.8,-0.768 -1.556,-1.304 -2.268,-1.608c-0.712,-0.304 -1.548,-0.456 -2.508,-0.456c-1.696,0 -3.12,0.548 -4.272,1.644c-1.152,1.096 -1.728,2.496 -1.728,4.2c0,1.704 0.572,3.128 1.716,4.272c1.144,1.144 2.5,1.716 4.068,1.716Z" style="fill:#fff;fill-rule:nonzero;"/><rect x="139.08" y="61.22" width="2.832" height="16.776" style="fill:#fff;fill-rule:nonzero;"/><path d="M155.012,77.996l0,-16.776l2.832,0l0,14.088l7.656,0l0,2.688l-10.488,0Z" style="fill:#fff;fill-rule:nonzero;"/></g></g></svg>